HIERARCHY
ROOT Pelvis
{
	OFFSET 0.000000 0.000000 0.000000
	CHANNELS 6 Xposition Yposition Zposition Xrotation Yrotation Zrotation
	JOINT LeftUpLeg_virtual
	{
		OFFSET 0.000000 0.000000 0.000000
		CHANNELS 3 Xrotation Yrotation Zrotation
		JOINT LeftUpLeg
		{
			OFFSET 18.735201 -5.666702 -4.541200
			CHANNELS 3 Xrotation Yrotation Zrotation
			JOINT LeftLeg
			{
				OFFSET -0.021200 -31.938179 0.493100
				CHANNELS 3 Xrotation Yrotation Zrotation
				JOINT LeftFoot
				{
					OFFSET 0.021200 -31.938179 -4.336299
					CHANNELS 3 Xrotation Yrotation Zrotation
					JOINT LeftToeBase
					{
						OFFSET 0.943001 -26.722000 15.023500
						CHANNELS 3 Xrotation Yrotation Zrotation
						End Site
						{
							OFFSET 0 0 0
						}
					}
				}
			}
		}
	}
	JOINT RightUpLeg_virtual
	{
		OFFSET 0.000000 0.000000 0.000000
		CHANNELS 3 Xrotation Yrotation Zrotation
		JOINT RightUpLeg
		{
			OFFSET -18.735201 -5.666702 -4.541200
			CHANNELS 3 Xrotation Yrotation Zrotation
			JOINT RightLeg
			{
				OFFSET 0.018946 -31.938133 0.493100
				CHANNELS 3 Xrotation Yrotation Zrotation
				JOINT RightFoot
				{
					OFFSET -0.018946 -31.938126 -4.336299
					CHANNELS 3 Xrotation Yrotation Zrotation
					JOINT RightToeBase
					{
						OFFSET -0.943001 -26.722004 15.023500
						CHANNELS 3 Xrotation Yrotation Zrotation
						End Site
						{
							OFFSET 0 0 0
						}
					}
				}
			}
		}
	}
	JOINT Hips_virtual
	{
		OFFSET 0.000000 0.000000 0.000000
		CHANNELS 3 Xrotation Yrotation Zrotation
		JOINT Hips
		{
			OFFSET -0.000000 -0.000000 -0.000000
			CHANNELS 3 Xrotation Yrotation Zrotation
			JOINT Spine
			{
				OFFSET 0.000000 10.199997 -0.299500
				CHANNELS 3 Xrotation Yrotation Zrotation
				JOINT Spine1
				{
					OFFSET 0.000000 11.900002 -1.516600
					CHANNELS 3 Xrotation Yrotation Zrotation
					JOINT Spine2
					{
						OFFSET 0.000000 13.600006 -2.842500
						CHANNELS 3 Xrotation Yrotation Zrotation
						JOINT Neck_virtual
						{
							OFFSET 0.000000 0.000000 0.000000
							CHANNELS 3 Xrotation Yrotation Zrotation
							JOINT Neck
							{
								OFFSET 0.000000 9.624100 -2.890100
								CHANNELS 3 Xrotation Yrotation Zrotation
								JOINT Head
								{
									OFFSET 0.000000 14.068802 -1.351900
									CHANNELS 3 Xrotation Yrotation Zrotation
									End Site
									{
										OFFSET 0 0 0
									}
								}
							}
						}
						JOINT LeftShoulder_virtual
						{
							OFFSET 0.000000 0.000000 0.000000
							CHANNELS 3 Xrotation Yrotation Zrotation
							JOINT LeftShoulder
							{
								OFFSET 15.263000 10.923401 -0.547700
								CHANNELS 3 Xrotation Yrotation Zrotation
								JOINT LeftArm
								{
									OFFSET 25.438599 -2.830597 -13.032500
									CHANNELS 3 Xrotation Yrotation Zrotation
									JOINT LeftForeArm
									{
										OFFSET 29.960503 0.000000 0.000000
										CHANNELS 3 Xrotation Yrotation Zrotation
										JOINT LeftHand
										{
											OFFSET 27.849251 0.000000 0.000000
											CHANNELS 3 Xrotation Yrotation Zrotation
											End Site
											{
												OFFSET 0 0 0
											}
										}
									}
								}
							}
						}
						JOINT RightShoulder_virtual
						{
							OFFSET 0.000000 0.000000 0.000000
							CHANNELS 3 Xrotation Yrotation Zrotation
							JOINT RightShoulder
							{
								OFFSET -15.263000 10.923401 -0.547700
								CHANNELS 3 Xrotation Yrotation Zrotation
								JOINT RightArm
								{
									OFFSET -25.438599 -2.830597 -13.032500
									CHANNELS 3 Xrotation Yrotation Zrotation
									JOINT RightForeArm
									{
										OFFSET -29.960503 0.000000 0.000000
										CHANNELS 3 Xrotation Yrotation Zrotation
										JOINT RightHand
										{
											OFFSET -27.849251 0.000000 0.000000
											CHANNELS 3 Xrotation Yrotation Zrotation
											End Site
											{
												OFFSET 0 0 0
											}
										}
									}
								}
							}
						}
					}
				}
			}
		}
	}
}
MOTION
Frames: 7
Frame Time: 0.03333333
-5.234076 85.535744 9.131886 0.000000 0.000000 0.000000 1.073473 -64.577984 1.946147 -41.275612 15.452039 37.843496 39.196625 -11.007880 -11.189350 0.131247 -12.007416 -15.826913 0.000000 0.000000 0.000000 0.242245 -64.279388 1.455799 -27.048579 3.414887 -25.257524 47.860679 -8.207207 0.247830 -22.462906 2.380768 16.860406 0.000000 0.000000 0.000000 2.569248 -63.714218 3.171730 -0.876318 0.044635 -0.031049 9.785703 9.201428 -12.797819 9.836067 -1.195050 -1.836935 0.000000 0.000000 0.000000 8.317687 -3.182614 -1.532124 -2.175920 1.084425 0.892195 0.000000 0.000000 0.000000 8.756489 -3.263905 -1.430729 -9.443878 -11.796144 -0.639963 -13.394426 2.355350 -32.691888 -9.258438 -44.771788 -7.197191 0.000000 0.000000 0.000000 7.480793 -2.080288 -1.211732 -2.708706 8.496781 10.942568 -27.991647 -26.953625 28.950853 135.877283 59.345219 -127.714757 0.000000 0.000000 0.000000 
-5.252914 85.374954 9.054485 0.000000 0.000000 0.000000 0.775879 -64.529913 1.617804 -42.116210 15.637032 38.056253 41.435367 -10.950791 -10.941843 0.218583 -11.881185 -14.731905 0.000000 0.000000 0.000000 -0.054410 -64.150052 1.070656 -26.511702 4.059572 -25.101174 47.595149 -8.008346 -0.081704 -23.062134 2.728488 18.003679 0.000000 0.000000 0.000000 2.265702 -63.609429 2.816315 -0.906769 0.038232 -0.029901 9.700425 9.062181 -12.157611 9.780936 -1.154263 -1.854658 0.000000 0.000000 0.000000 8.305883 -3.143563 -1.447756 -2.165281 1.103033 0.797876 0.000000 0.000000 0.000000 8.735764 -3.346756 -1.581328 -9.367335 -12.139087 -0.991061 -11.984191 2.520229 -32.450881 -9.743991 -46.502708 -7.041967 0.000000 0.000000 0.000000 7.688479 -2.072639 -1.331861 -3.072707 8.375787 10.502843 -24.640763 -24.600574 28.385223 137.613477 58.894092 -129.615311 0.000000 0.000000 0.000000 
-5.437981 85.211494 9.390751 0.000000 0.000000 0.000000 -0.129118 -64.408506 0.749760 -42.684010 15.187885 37.884628 44.311050 -11.280422 -10.474268 -0.570536 -11.678314 -13.993209 0.000000 0.000000 0.000000 -0.785577 -63.890921 0.272786 -24.890148 4.886773 -25.082289 47.265514 -7.946796 -0.727515 -24.784545 2.893828 19.817205 0.000000 0.000000 0.000000 1.231850 -63.448837 1.839961 -0.908982 0.075073 -0.041321 9.461029 8.767911 -10.854438 9.552907 -0.862124 -1.915035 0.000000 0.000000 0.000000 7.994242 -2.930718 -1.311352 -2.090906 1.150284 0.492654 0.000000 0.000000 0.000000 8.537813 -3.198388 -1.619264 -9.474060 -11.703054 -2.092890 -9.207569 3.343477 -30.669462 -10.739889 -49.617411 -6.852780 0.000000 0.000000 0.000000 7.771934 -1.890325 -1.387445 -3.427516 7.312809 9.523361 -16.235006 -22.813733 26.253330 141.681141 57.675238 -134.323866 0.000000 0.000000 0.000000 
-5.842560 85.094429 10.185932 0.000000 0.000000 0.000000 -1.414637 -64.160953 -0.518678 -42.671190 14.093265 37.372637 46.964302 -11.815227 -9.805083 -1.843959 -11.377220 -13.519243 0.000000 0.000000 0.000000 -1.819327 -63.522938 -0.815885 -22.644041 5.528116 -25.271859 47.106268 -8.154034 -1.518059 -26.949587 2.728811 21.764802 0.000000 0.000000 0.000000 -0.361628 -63.206413 0.368930 -0.884316 0.138468 -0.051462 9.046885 8.384032 -9.126016 9.180024 -0.337139 -1.984040 0.000000 0.000000 0.000000 7.407965 -2.525923 -1.122116 -1.923752 1.225643 0.023863 0.000000 0.000000 0.000000 8.085905 -2.777151 -1.496973 -9.687162 -10.288825 -3.426702 -5.534309 5.814865 -27.187747 -12.605314 -54.939351 -7.172238 0.000000 0.000000 0.000000 7.597930 -1.523557 -1.344851 -3.799474 5.173724 8.239205 -4.758376 -22.252488 23.805499 145.708781 56.318130 -139.529481 0.000000 0.000000 0.000000 
-6.502585 85.048523 11.249065 0.000000 0.000000 0.000000 -2.842702 -63.772206 -2.044474 -41.818325 12.460414 36.547236 48.698723 -12.334896 -8.973754 -2.914455 -10.954326 -13.134787 0.000000 0.000000 0.000000 -2.977136 -62.963921 -2.096192 -19.915148 5.733293 -25.458810 47.000779 -8.666557 -2.295500 -28.478489 2.294534 23.248548 0.000000 0.000000 0.000000 -2.139258 -62.759009 -1.352484 -0.865109 0.181252 -0.051881 8.393894 7.898843 -7.237013 8.604957 0.331616 -1.976168 0.000000 0.000000 0.000000 6.594681 -1.889648 -0.860058 -1.677666 1.311554 -0.547017 0.000000 0.000000 0.000000 7.339712 -2.114321 -1.177292 -9.928897 -7.914730 -4.529534 -1.693029 10.768904 -22.252451 -16.160043 -62.933711 -9.012669 0.000000 0.000000 0.000000 7.128454 -1.003559 -1.179439 -4.230649 1.730112 6.693071 7.157091 -22.588834 22.291567 148.355711 55.492234 -143.687017 0.000000 0.000000 0.000000 
-7.431987 85.182632 12.313812 0.000000 0.000000 0.000000 -4.065564 -63.162256 -3.600185 -40.102629 10.437484 35.606681 49.021299 -12.730829 -8.107530 -3.378145 -10.399094 -12.791297 0.000000 0.000000 0.000000 -4.046867 -62.149107 -3.419908 -16.522253 5.329334 -25.285490 45.926646 -9.452707 -3.014875 -28.815141 1.626148 24.062744 0.000000 0.000000 0.000000 -3.745726 -61.903548 -3.087898 -0.858942 0.179166 -0.029852 7.587876 7.275957 -5.521066 7.803274 1.042757 -1.845913 0.000000 0.000000 0.000000 5.706587 -1.096860 -0.507943 -1.359268 1.409986 -1.134204 0.000000 0.000000 0.000000 6.308538 -1.306913 -0.659329 -10.092636 -4.820517 -4.805560 1.460733 17.986840 -16.462825 -24.172600 -72.655140 -15.224539 0.000000 0.000000 0.000000 6.261751 -0.405818 -0.909231 -4.761930 -2.787038 4.973157 17.021987 -23.110853 21.920375 149.393244 55.563305 -146.330478 0.000000 0.000000 0.000000 
-8.510923 85.542198 13.257538 0.000000 0.000000 0.000000 -4.896759 -62.281374 -4.945100 -37.728025 8.356450 34.850296 47.664933 -12.918697 -7.442993 -3.355644 -9.831929 -12.711612 0.000000 0.000000 0.000000 -4.795510 -61.101377 -4.596963 -12.416662 4.298623 -24.522440 42.960821 -10.297982 -3.702193 -27.840107 0.902070 24.653667 0.000000 0.000000 0.000000 -4.939683 -60.669592 -4.632381 -0.849954 0.138898 0.003252 6.749207 6.564398 -4.194960 6.733355 1.708719 -1.587928 0.000000 0.000000 0.000000 4.821658 -0.250697 -0.087104 -0.982314 1.487883 -1.655681 0.000000 0.000000 0.000000 5.141433 -0.489121 -0.009028 -10.225127 -1.302145 -3.957787 2.836315 26.375692 -10.312740 -47.511458 -81.338250 -36.737743 0.000000 0.000000 0.000000 5.149471 0.203369 -0.594889 -5.407713 -8.079883 2.982364 24.369835 -23.450719 22.037718 149.156237 56.536068 -147.597820 0.000000 0.000000 0.000000 
